<svg width="102" height="48" viewBox="0 0 102 48" fill="none" xmlns="http://www.w3.org/2000/svg">
<g clip-path="url(#clip0_1_1655)">
<path d="M47.8491 28.26H0.0827026V31.0438H47.8491V28.26Z" fill="#0D0D0D"/>
<path d="M0.0827026 47.9998H3.02606V44.7942H19.7611V33.8277H0.0827026V47.9998ZM3.02606 36.6115H16.8177V42.0104H3.02606V36.6115Z" fill="#0D0D0D"/>
<path d="M22.539 44.7944H33.6396V48H36.6671V44.7944H47.7677V33.8279H22.539V44.7944ZM36.6671 36.6117H44.9085V42.0106H36.6671V36.6117ZM25.4823 36.6117H33.6396V42.0106H25.4823V36.6117Z" fill="#0D0D0D"/>
<path d="M25.3966 0H14.1277V25.3917H25.3966V0ZM22.4532 22.6079H17.0711V2.86817H22.4532V22.6079Z" fill="#0D0D0D"/>
<path d="M31.1988 8.52014L36.581 2.86817V25.4761H39.5243V8.52014L44.8224 2.86817V25.4761H47.7657V0H43.645L39.5243 4.38661V0H35.4036L28.2555 7.42349V25.4761H31.1988V8.52014Z" fill="#0D0D0D"/>
<path d="M8.32548 25.4761H11.2688V0H7.14814L0 7.42349V25.3917H8.32548V25.4761ZM3.02745 8.52014L8.40958 2.86817V22.6079H3.02745V8.52014Z" fill="#0D0D0D"/>
<path d="M58.4826 0H57.0957V48H58.4826V0Z" fill="#A3D562"/>
<path d="M74.1819 0.295349C68.541 0.295349 66.2951 4.4461 66.2951 9.75276V12.1171H68.5932V9.59514C68.5932 5.65455 70.0557 2.50208 74.0774 2.50208C78.2559 2.50208 79.6661 5.49692 79.6661 9.75276C79.6661 19.8407 66.2951 22.6253 66.2951 35.603V37.3894H81.7553V35.1827H68.6977V34.7624C68.8544 23.9389 82.0687 20.261 82.0687 9.64768C82.0687 4.28848 79.875 0.295349 74.1819 0.295349Z" fill="#0D0D0D"/>
<path d="M89.3785 2.81731H100.921V0.558044H87.1848L86.2447 20.2084H88.4906V19.578C89.2218 16.8458 91.0499 15.3747 93.7137 15.3747C97.7354 15.3747 99.3023 18.3695 99.3023 22.3101V28.51C99.3023 32.4505 97.7354 35.4454 93.7137 35.4454C89.7441 35.4454 88.1772 32.4505 88.1772 28.51V26.4083H85.8791V28.4049C85.8791 33.7115 88.2294 37.7047 93.7659 37.7047C99.3545 37.7047 101.705 33.7115 101.705 28.4049V22.0999C101.705 17.0034 99.6679 13.1154 94.6016 13.1154C91.8856 13.1154 89.9531 13.956 88.6995 15.9526L89.3785 2.81731Z" fill="#0D0D0D"/>
<path fill-rule="evenodd" clip-rule="evenodd" d="M66 12.4124V9.75275C66 7.06431 66.5679 4.62847 67.8865 2.85756C69.2155 1.07283 71.28 0 74.1819 0C77.1051 0 79.1709 1.02988 80.4956 2.7837C81.8097 4.52339 82.3638 6.93485 82.3638 9.64767C82.3638 15.065 78.9961 18.7122 75.6991 22.2828L75.6587 22.3266C72.324 25.9382 69.0701 29.4834 68.9928 34.7645V34.8874H82.0504V37.6848H66V35.603C66 28.9923 69.4163 24.9783 72.765 21.3925C72.9702 21.1729 73.1748 20.955 73.3783 20.7384C76.5161 17.3976 79.371 14.3581 79.371 9.75275C79.371 7.64778 79.0205 5.9064 78.1951 4.69816C77.384 3.51088 76.0859 2.7974 74.0774 2.7974C72.1565 2.7974 70.8805 3.54334 70.0713 4.73671C69.2499 5.94819 68.8883 7.65347 68.8883 9.59513V12.4124H66ZM68.6977 34.7624C68.7761 29.3455 72.1251 25.7184 75.4514 22.1159C78.7714 18.5203 82.0687 14.9493 82.0687 9.64767C82.0687 4.28847 79.875 0.295336 74.1819 0.295336C68.541 0.295336 66.2951 4.44609 66.2951 9.75275V12.1171H68.5932V9.59513C68.5932 5.65454 70.0557 2.50207 74.0774 2.50207C78.2559 2.50207 79.6661 5.49691 79.6661 9.75275C79.6661 14.4795 76.7306 17.6028 73.6104 20.9226C70.0715 24.688 66.2951 28.7061 66.2951 35.603V37.3894H81.7553V35.1827H68.6977V34.7624ZM87.1848 0.558042H100.921V2.81731H89.3785L88.6995 15.9526C88.8015 15.7902 88.908 15.6354 89.019 15.4881C90.2727 13.8248 92.1065 13.1154 94.6016 13.1154C99.6679 13.1154 101.705 17.0034 101.705 22.0999V28.4049C101.705 33.7115 99.3545 37.7047 93.7659 37.7047C88.2294 37.7047 85.8791 33.7115 85.8791 28.4049V26.4083H88.1772V28.51C88.1772 32.4505 89.7441 35.4454 93.7137 35.4454C97.7354 35.4454 99.3023 32.4505 99.3023 28.51V22.3101C99.3023 18.3695 97.7354 15.3747 93.7137 15.3747C91.0499 15.3747 89.2218 16.8458 88.4906 19.578V20.2084H86.2447L87.1848 0.558042ZM88.7857 19.6172V20.5038H85.9351L86.9035 0.262706H101.217V3.11265H89.6587L89.045 14.9855C90.3564 13.4637 92.2041 12.8201 94.6016 12.8201C97.2213 12.8201 99.0908 13.8313 100.294 15.5254C101.485 17.2038 102 19.5194 102 22.0999V28.4049C102 31.0959 101.405 33.4939 100.064 35.2256C98.7146 36.9694 96.6381 38 93.7659 38C90.9188 38 88.8554 36.9687 87.5126 35.2251C86.1791 33.4935 85.584 31.0959 85.584 28.4049V26.113H88.4723V28.51C88.4723 30.4483 88.8588 32.112 89.6968 33.2835C90.5235 34.4392 91.8136 35.1501 93.7136 35.1501C95.6412 35.1501 96.9442 34.4381 97.7768 33.2826C98.6207 32.1115 99.0072 30.4484 99.0072 28.51V22.3101C99.0072 20.3717 98.6207 18.7085 97.7768 17.5374C96.9442 16.382 95.6412 15.67 93.7136 15.67C92.438 15.67 91.3833 16.0212 90.5623 16.6819C89.7477 17.3375 89.1403 18.3163 88.7857 19.6172Z" fill="#0D0D0D"/>
<path fill-rule="evenodd" clip-rule="evenodd" d="M77.9875 33.0944C77.5481 33.2396 77.3423 33.3784 76.6211 34.0164C75.5209 34.9895 74.0474 36.5419 73.4545 37.3526C72.2791 38.9598 70.7498 41.7609 70.2263 43.2657C70.0407 43.7995 70.0031 44.0398 70.0003 44.7104C69.9972 45.4718 70.0116 45.5439 70.2698 46.0571C70.7264 46.9646 71.5977 47.5995 72.8196 47.9153C73.7341 48.1516 74.6255 47.8886 75.2937 47.1851L75.6571 46.8025L75.9124 47.0192C76.7379 47.72 78.4392 48.1504 79.4917 47.9248C79.6525 47.8903 80.0042 47.7138 80.2733 47.5325L80.7624 47.2031L81.2105 47.3465C82.2069 47.6653 83.0614 47.5817 84.0963 47.0641L84.5507 46.8369L85.0412 47.092C85.4751 47.3177 85.6057 47.347 86.1733 47.3457C86.7203 47.3443 86.8777 47.311 87.2397 47.1201L87.6643 46.896L88.1907 47.1216C88.941 47.4432 89.6722 47.436 90.3188 47.1009L90.7816 46.8609L91.2247 47.0831C92.4953 47.7201 94.0777 47.4831 95.366 46.4631C96.0078 45.9549 96.3255 45.2777 96.3201 44.4291C96.3169 43.9349 96.2738 43.7133 96.1104 43.3535L95.9047 42.9003L96.3274 41.9626C96.9408 40.6017 97.036 40.2646 96.99 39.6168C96.9157 38.5686 96.2529 37.6406 95.2212 37.1403C94.7512 36.9123 94.5623 36.8674 93.9548 36.8392C93.3542 36.8114 93.1505 36.8367 92.6726 36.9984C92.1628 37.1709 92.0737 37.18 91.8057 37.0863C91.2568 36.8946 90.5508 36.8186 90.1072 36.9035C89.7184 36.9779 89.6623 36.9674 89.2838 36.7505C88.0856 36.0634 86.9906 36.0328 86.0152 36.6591C85.872 36.7511 85.7773 36.7356 85.3013 36.5422C84.6876 36.2928 83.8456 36.2015 83.3114 36.3261L82.981 36.4032L82.8971 35.9229C82.7252 34.9384 82.2145 34.2739 81.2276 33.7507C79.9983 33.0991 78.743 32.8448 77.9875 33.0944Z" fill="#A3D562"/>
<path d="M77.4128 40.8387C77.5487 39.9897 77.6548 39.3801 77.7312 39.0099C77.8161 38.6305 77.9053 38.2467 77.9987 37.8584C78.0326 37.7319 78.0708 37.5603 78.1133 37.3436C78.1642 37.1178 78.2109 36.883 78.2534 36.6392C78.0411 36.7204 77.8034 36.8695 77.5402 37.0862C77.2855 37.303 77.018 37.5739 76.7378 37.899C76.4661 38.2151 76.1859 38.5764 75.8972 38.9828C75.617 39.3801 75.3453 39.8046 75.0821 40.2562L74.6364 41.0554C74.4326 41.4618 74.2415 41.8682 74.0632 42.2746C73.8849 42.672 73.7321 43.0739 73.6047 43.4803C73.4604 43.9138 73.3415 44.3473 73.2481 44.7808C73.1632 45.2143 73.108 45.6207 73.0826 46C72.675 45.8736 72.3906 45.7471 72.2292 45.6207C72.0764 45.4943 72 45.3362 72 45.1466C72 45.0021 72.0382 44.7989 72.1146 44.5369C72.191 44.275 72.3014 43.968 72.4458 43.6158C72.5986 43.2545 72.7769 42.8571 72.9807 42.4236C73.1929 41.9901 73.5071 41.3986 73.9231 40.649C74.3392 39.8904 74.734 39.2447 75.1076 38.7118C75.4897 38.179 75.8718 37.6913 76.2538 37.2488C76.6359 36.7972 77.018 36.4044 77.4001 36.0702C77.7822 35.727 78.1473 35.4561 78.4954 35.2574C78.5039 35.1942 78.5081 35.14 78.5081 35.0948C78.5166 35.0497 78.5209 35.0181 78.5209 35C78.6397 35 78.7968 35.0316 78.9921 35.0948C79.1959 35.158 79.3912 35.2348 79.5779 35.3251C79.7732 35.4154 79.943 35.5103 80.0874 35.6096C80.2402 35.6999 80.3251 35.7767 80.3421 35.8399C80.0619 36.3637 79.786 37.1494 79.5143 38.197C79.2426 39.2356 79.0176 40.4819 78.8393 41.936C78.7968 42.2972 78.7586 42.7081 78.7246 43.1687C78.6992 43.6293 78.6864 44.1441 78.6864 44.7131C78.6864 44.9117 78.6864 45.1149 78.6864 45.3227C78.6864 45.5304 78.6949 45.7471 78.7119 45.9729C78.6949 45.9819 78.6779 45.9865 78.661 45.9865C78.644 45.9865 78.61 45.9865 78.5591 45.9865C78.4402 45.9865 78.3001 45.9639 78.1388 45.9187C77.9859 45.8826 77.8331 45.8329 77.6803 45.7697C77.5359 45.7155 77.4086 45.6523 77.2982 45.5801C77.1963 45.5078 77.1326 45.4446 77.1072 45.3904C77.0987 45.273 77.0944 45.1556 77.0944 45.0382C77.0944 44.9298 77.0944 44.8124 77.0944 44.686C77.0944 44.126 77.1114 43.5571 77.1454 42.9791C77.1878 42.4011 77.277 41.6876 77.4128 40.8387Z" fill="black"/>
<path d="M85.1895 39.3621C85.1555 39.922 85.0621 40.4052 84.9093 40.8116C84.7564 41.2089 84.5357 41.5612 84.247 41.8682C83.9668 42.1663 83.6229 42.4372 83.2154 42.681C82.8078 42.9249 82.3323 43.1597 81.7889 43.3855C81.7889 43.4397 81.7847 43.4984 81.7762 43.5616C81.7762 43.6158 81.7762 43.6745 81.7762 43.7377C81.7762 43.8551 81.7847 43.977 81.8017 44.1034C81.8187 44.2299 81.8484 44.3473 81.8908 44.4557C81.9333 44.564 81.9927 44.6544 82.0691 44.7266C82.1456 44.7898 82.2432 44.8214 82.3621 44.8214C82.5913 44.8214 82.8163 44.7672 83.0371 44.6589C83.2578 44.5505 83.4659 44.4195 83.6611 44.266C83.8649 44.1034 84.0517 43.9319 84.2215 43.7512C84.3998 43.5616 84.5569 43.39 84.6928 43.2365C84.7777 43.3177 84.8498 43.3945 84.9093 43.4667C84.5272 44.0086 84.1069 44.4602 83.6484 44.8214C83.1984 45.1736 82.7696 45.3994 82.3621 45.4988C81.7762 45.4265 81.3177 45.2007 80.9866 44.8214C80.6639 44.4331 80.5026 43.968 80.5026 43.4261C80.5026 43.0558 80.5493 42.681 80.6427 42.3017C80.7446 41.9134 80.8804 41.5431 81.0503 41.1909C81.2286 40.8296 81.4323 40.491 81.6616 40.1749C81.8993 39.8588 82.1498 39.5833 82.413 39.3485C82.6847 39.1137 82.9607 38.9286 83.2409 38.7931C83.5295 38.6576 83.814 38.5899 84.0942 38.5899C84.4847 38.6441 84.8498 38.9015 85.1895 39.3621ZM84.3107 39.8091C84.0814 39.8452 83.8437 39.9446 83.5975 40.1071C83.3512 40.2697 83.1177 40.4865 82.897 40.7574C82.6847 41.0283 82.4894 41.3444 82.3111 41.7057C82.1328 42.0669 81.9927 42.4553 81.8908 42.8707C82.5701 42.5094 83.1347 42.0669 83.5847 41.5431C84.0347 41.0103 84.2767 40.4323 84.3107 39.8091Z" fill="black"/>
<path d="M93.1405 40.8116C93.0047 40.8206 92.8391 40.9154 92.6438 41.0961C92.4485 41.2677 92.2363 41.4934 92.007 41.7734C91.7863 42.0443 91.5528 42.3469 91.3065 42.681C91.0688 43.0152 90.8353 43.3493 90.6061 43.6835C90.3853 44.0086 90.1773 44.3157 89.982 44.6047C89.7867 44.8937 89.6211 45.124 89.4853 45.2956C89.2985 45.2143 89.1372 45.0969 89.0013 44.9434C88.8655 44.7808 88.7678 44.5821 88.7084 44.3473C88.7508 44.0673 88.8103 43.7783 88.8867 43.4803C88.9631 43.1732 89.0608 42.8571 89.1796 42.532C89.307 42.2069 89.4598 41.8682 89.6381 41.516C89.8249 41.1548 90.0499 40.7755 90.3131 40.3781C90.1858 40.3871 90.0117 40.4865 89.791 40.6761C89.5702 40.8567 89.3325 41.0961 89.0777 41.3941C88.823 41.6831 88.5598 42.0127 88.2881 42.383C88.0164 42.7443 87.7617 43.101 87.5239 43.4532C87.2098 43.9228 86.9466 44.3337 86.7343 44.686C86.5305 45.0382 86.3819 45.2459 86.2885 45.3091C86.0678 45.1375 85.915 44.9524 85.83 44.7537C85.7451 44.555 85.6815 44.3337 85.639 44.0899C85.6475 43.8732 85.6772 43.6022 85.7282 43.2771C85.7876 42.952 85.8683 42.6178 85.9701 42.2746C86.1654 41.6154 86.4159 40.9606 86.7216 40.3103C87.0357 39.6601 87.3371 39.064 87.6258 38.5222C87.8636 38.5764 88.0758 38.6622 88.2626 38.7796C88.4579 38.897 88.6617 39.0686 88.874 39.2943C88.7891 39.5743 88.6575 39.8723 88.4791 40.1884C88.3008 40.4955 88.114 40.8206 87.9188 41.1638C87.7235 41.507 87.5452 41.8592 87.3838 42.2204C87.2225 42.5817 87.1164 42.9475 87.0654 43.3177C87.3032 42.9565 87.5834 42.5411 87.906 42.0714C88.2372 41.6018 88.5725 41.1593 88.9122 40.7438C89.2603 40.3284 89.6042 39.9762 89.9438 39.6872C90.2834 39.3982 90.5891 39.2537 90.8608 39.2537C90.9627 39.2537 91.0731 39.2718 91.1919 39.3079C91.3108 39.344 91.4212 39.3892 91.5231 39.4434C91.6249 39.4975 91.7099 39.5517 91.7778 39.6059C91.8457 39.6511 91.8839 39.6872 91.8924 39.7143C91.85 39.8949 91.7481 40.1433 91.5867 40.4594C91.4339 40.7664 91.2683 41.0915 91.09 41.4347C90.9117 41.7779 90.7462 42.1121 90.5933 42.4372C90.4405 42.7533 90.3513 43.0062 90.3259 43.1958C90.7419 42.5907 91.1325 42.0443 91.4976 41.5567C91.8627 41.0599 92.2066 40.6355 92.5292 40.2833C92.8519 39.931 93.149 39.6601 93.4207 39.4704C93.7009 39.2808 93.9641 39.186 94.2104 39.186C94.3802 39.186 94.5373 39.2356 94.6816 39.335C94.8344 39.4253 94.9406 39.5608 95 39.7414C94.9236 40.0123 94.7962 40.3374 94.6179 40.7167C94.4481 41.0961 94.274 41.4979 94.0957 41.9224C93.9174 42.3378 93.7561 42.7488 93.6118 43.1552C93.4759 43.5616 93.408 43.9273 93.408 44.2525C93.408 44.4421 93.4335 44.5686 93.4844 44.6318C93.5354 44.686 93.6075 44.7131 93.7009 44.7131C93.8028 44.7131 93.8962 44.695 93.9811 44.6589C94.0745 44.6137 94.1424 44.5911 94.1849 44.5911C94.2358 44.6273 94.2656 44.6724 94.274 44.7266C94.2825 44.7808 94.2868 44.8305 94.2868 44.8756C94.117 45.0201 93.9429 45.1375 93.7646 45.2278C93.5863 45.3272 93.3868 45.3768 93.166 45.3768C92.9622 45.3768 92.7924 45.3407 92.6566 45.2685C92.5292 45.1962 92.4231 45.0969 92.3382 44.9704C92.2533 44.844 92.1938 44.6995 92.1599 44.5369C92.1259 44.3744 92.1089 44.1983 92.1089 44.0086C92.1089 43.7016 92.1471 43.399 92.2235 43.101C92.3 42.7939 92.3891 42.5049 92.491 42.234C92.6014 41.954 92.716 41.6966 92.8349 41.4618C92.9537 41.218 93.0556 41.0012 93.1405 40.8116Z" fill="black"/>
</g>
<defs>
<clipPath id="clip0_1_1655">
<rect width="102" height="48" fill="white"/>
</clipPath>
</defs>
</svg>
